<?xml version="1.0" standalone="no"?>
<!DOCTYPE svg PUBLIC "-//W3C//DTD SVG 20010904//EN"
 "http://www.w3.org/TR/2001/REC-SVG-20010904/DTD/svg10.dtd">
<svg version="1.0" xmlns="http://www.w3.org/2000/svg"
 width="150.000000pt" height="150.000000pt" viewBox="0 0 150.000000 150.000000"
 preserveAspectRatio="xMidYMid meet">
<metadata>
Created by potrace 1.11, written by Peter Selinger 2001-2013
</metadata>
<g transform="translate(0.000000,150.000000) scale(0.100000,-0.100000)"
fill="#000000" stroke="none">
<path d="M53 1158 c-13 -21 -17 -393 -4 -417 11 -20 20 -21 137 -21 l124 0 -2
223 -3 222 -122 3 c-90 2 -124 -1 -130 -10z m165 -96 c3 -30 1 -32 -21 -27
-18 5 -26 2 -31 -11 -5 -13 3 -27 30 -49 32 -27 37 -37 38 -76 1 -58 -24 -99
-62 -99 -34 0 -52 16 -52 47 0 22 3 23 35 17 33 -6 35 -4 35 19 0 17 -7 28
-20 32 -74 24 -56 192 19 183 21 -2 27 -9 29 -36z"/>
<path d="M375 1148 c-3 -13 -4 -113 -3 -223 l3 -200 128 -3 c98 -2 127 0 127
10 5 137 2 416 -3 426 -6 8 -43 12 -127 12 -116 0 -120 -1 -125 -22z m150 -58
c8 -12 45 -234 45 -267 0 -36 -36 -30 -43 6 -8 36 -39 36 -47 0 -4 -15 -14
-25 -29 -27 -20 -3 -22 0 -17 25 3 15 13 75 22 133 9 58 20 113 25 123 11 19
34 23 44 7z"/>
<path d="M695 1148 c-3 -13 -4 -113 -3 -223 l3 -200 126 -3 c124 -3 127 -2
133 20 12 45 7 403 -6 416 -8 8 -52 12 -130 12 -114 0 -118 -1 -123 -22z m245
-50 c0 -24 -4 -38 -8 -32 -4 7 -28 13 -53 15 l-46 4 -7 -103 c-4 -56 -4 -107
-1 -112 4 -6 15 -10 26 -10 14 0 19 -7 19 -30 0 -28 -3 -30 -35 -30 -24 0 -37
6 -45 19 -5 11 -10 80 -10 153 0 77 -4 127 -9 120 -4 -8 -19 -12 -32 -10 -18
2 -25 10 -27 31 l-3 27 115 0 116 0 0 -42z"/>
<path d="M1006 1154 c-9 -24 -7 -407 2 -422 7 -9 40 -12 133 -10 l124 3 0 220
0 220 -126 3 c-109 2 -128 0 -133 -14z m164 -88 c0 -24 -23 -41 -41 -30 -5 3
-9 -9 -9 -25 0 -26 4 -31 25 -31 20 0 25 -5 25 -25 0 -20 -5 -25 -25 -25 -22
0 -25 -4 -25 -35 0 -31 3 -35 25 -35 21 0 25 -5 25 -30 0 -27 -3 -30 -29 -30
-53 0 -61 19 -61 149 0 129 5 141 57 141 28 0 33 -4 33 -24z"/>
<path d="M598 572 c-44 -50 -76 -185 -63 -268 5 -35 10 -44 26 -44 18 0 19 5
13 49 -6 45 -4 50 20 66 41 27 60 13 53 -38 -3 -24 -9 -51 -13 -60 -5 -13 0
-17 21 -17 l27 0 -4 118 c-4 95 -9 125 -26 159 -27 52 -35 57 -54 35z"/>
<path d="M705 488 c-3 -24 -5 -83 -3 -133 2 -71 6 -90 18 -93 13 -2 15 13 15
92 0 64 4 99 13 108 25 25 34 -11 27 -109 -4 -76 -3 -93 9 -93 21 0 26 23 25
118 -1 116 -8 138 -42 135 -15 -1 -27 2 -27 8 0 5 -6 9 -14 9 -10 0 -17 -15
-21 -42z"/>
<path d="M838 496 c-6 -14 -7 -33 -4 -43 7 -17 8 -17 17 0 12 21 35 22 43 2 3
-9 -4 -21 -18 -30 -29 -19 -46 -56 -46 -99 0 -41 26 -66 68 -66 l32 0 0 88 c0
92 -11 150 -32 164 -24 15 -48 8 -60 -16z"/>
<path d="M1014 464 c3 -31 13 -69 21 -84 20 -38 19 -47 -5 -53 -15 -4 -20 -14
-20 -36 0 -35 6 -38 36 -16 31 21 64 106 71 180 5 56 4 65 -11 65 -12 0 -16
-10 -17 -47 0 -27 -4 -57 -9 -68 -7 -18 -9 -18 -20 10 -7 17 -13 47 -13 68 -1
29 -6 37 -21 37 -17 0 -18 -5 -12 -56z"/>
<path d="M1156 498 c-26 -37 -20 -74 21 -118 33 -37 35 -42 21 -57 -18 -18
-36 -10 -48 21 -7 18 -9 15 -9 -16 -2 -88 84 -90 96 -1 5 36 1 45 -31 80 -20
22 -36 46 -36 52 0 14 27 15 35 1 11 -18 25 -11 25 13 0 47 -47 63 -74 25z"/>
<path d="M1286 505 c-56 -57 -38 -245 24 -245 24 0 50 36 50 69 l0 25 -16 -22
c-18 -26 -39 -28 -53 -4 -8 14 -2 24 30 53 43 41 51 78 23 117 -18 26 -37 28
-58 7z"/>
</g>
</svg>
