<?xml version="1.0" encoding="utf-8"?>
<!-- Generator: Adobe Illustrator 16.0.0, SVG Export Plug-In . SVG Version: 6.00 Build 0)  -->
<!DOCTYPE svg PUBLIC "-//W3C//DTD SVG 1.1//EN" "http://www.w3.org/Graphics/SVG/1.1/DTD/svg11.dtd">
<svg version="1.1" xmlns="http://www.w3.org/2000/svg" xmlns:xlink="http://www.w3.org/1999/xlink" x="0px" y="0px"
	 width="319.145px" height="100.007px" viewBox="0 0 319.145 100.007" enable-background="new 0 0 319.145 100.007"
	 xml:space="preserve">
<g id="Lager_5">
</g>
<g id="Lager_6">
</g>
<g id="Lager_7">
</g>
<g id="Lager_4">
</g>
<g id="Lager_3">
</g>
<g id="Lager_8">
</g>
<g id="Lager_9">
</g>
<g id="Lager_2">
	<g>
		<path stroke="#000000" stroke-width="1.8" d="M294.459,78.24c-0.575,0.257-1.096,0.497-1.561,0.721
			c-0.467,0.224-1.075,0.459-1.828,0.704c-0.639,0.203-1.331,0.376-2.078,0.521c-0.748,0.144-1.572,0.216-2.472,0.216
			c-1.694,0-3.234-0.243-4.62-0.729c-1.386-0.486-2.592-1.247-3.616-2.283c-1.004-1.015-1.788-2.305-2.353-3.869
			c-0.565-1.564-0.848-3.383-0.848-5.455c0-1.965,0.271-3.721,0.815-5.27s1.328-2.857,2.354-3.926
			c0.993-1.035,2.193-1.825,3.601-2.37c1.406-0.545,2.967-0.817,4.684-0.817c1.254,0,2.506,0.155,3.756,0.466
			s2.639,0.856,4.166,1.638l-0.234,3.771c-1.285-1.089-2.561-1.883-3.824-2.379c-1.264-0.498-2.617-0.746-4.059-0.746
			c-1.181,0-2.244,0.194-3.189,0.583s-1.789,0.993-2.53,1.813c-0.722,0.799-1.282,1.809-1.685,3.027
			c-0.402,1.22-0.604,2.628-0.604,4.226c0,1.673,0.222,3.11,0.666,4.313c0.443,1.203,1.016,2.184,1.716,2.939
			c0.731,0.788,1.585,1.371,2.562,1.75c0.977,0.377,2.009,0.566,3.096,0.566c1.494,0,2.894-0.26,4.199-0.781
			c1.307-0.521,3.887-2.344,3.887-2.344V78.24z"/>
	</g>
	
		<ellipse fill-rule="evenodd" clip-rule="evenodd" fill="#567EB9" stroke="#567EB9" cx="53.083" cy="49.579" rx="16.75" ry="15.63"/>
	<path fill="none" stroke="#567EB9" stroke-width="2" d="M72.307,21.973c8.743,6.316,14.359,16.129,14.359,27.149
		c0,19.06-16.79,34.506-37.5,34.506s-37.5-15.446-37.5-34.506c0-19.054,16.79-34.5,37.5-34.5
		C57.899,14.622,65.934,17.368,72.307,21.973z"/>
	<g>
		<path fill="#1D1719" stroke="#1D1719" stroke-width="1.8" d="M100.842,59.022c1.069,1.068,1.889,2.377,2.458,3.925
			s0.855,3.305,0.855,5.27s-0.291,3.725-0.873,5.278s-1.395,2.849-2.441,3.885c-1.081,1.078-2.359,1.89-3.833,2.434
			c-1.475,0.545-3.158,0.817-5.049,0.817c-1.845,0-3.522-0.278-5.032-0.833s-2.793-1.361-3.851-2.418
			c-1.058-1.058-1.872-2.355-2.441-3.893c-0.57-1.538-0.854-3.295-0.854-5.271c0-1.943,0.282-3.687,0.846-5.229
			s1.387-2.865,2.468-3.965c1.034-1.046,2.317-1.847,3.851-2.402c1.533-0.555,3.205-0.833,5.015-0.833
			c1.88,0,3.569,0.28,5.067,0.841S99.796,57.987,100.842,59.022z M100.531,68.217c0-3.093-0.765-5.479-2.293-7.159
			s-3.615-2.521-6.261-2.521c-2.669,0-4.765,0.841-6.288,2.521s-2.284,4.066-2.284,7.159c0,3.126,0.776,5.518,2.328,7.177
			c1.552,1.658,3.633,2.487,6.243,2.487s4.688-0.829,6.234-2.487C99.757,73.734,100.531,71.343,100.531,68.217z"/>
		<path fill="#1D1719" stroke="#1D1719" stroke-width="1.8" d="M137.634,80.131h-3.656V59.587l-7.614,13.981h-2.17l-7.559-13.981
			v20.544h-3.406V56.287h4.97l7.302,13.277l7.062-13.277h5.072V80.131z"/>
		<path fill="#1D1719" stroke="#1D1719" stroke-width="1.8" d="M163.785,63.499c0,1.058-0.212,2.038-0.636,2.941
			c-0.423,0.902-1.015,1.686-1.775,2.348c-0.945,0.822-2.062,1.439-3.35,1.852c-1.288,0.41-2.914,0.616-4.876,0.616h-3.644v8.875
			h-3.656V56.287h7.44c1.645,0,3.039,0.12,4.18,0.36c1.142,0.24,2.155,0.617,3.039,1.13c1.043,0.609,1.851,1.368,2.422,2.276
			C163.499,60.962,163.785,62.11,163.785,63.499z M160.003,63.573c0-0.817-0.166-1.528-0.497-2.133
			c-0.332-0.604-0.836-1.098-1.511-1.48c-0.59-0.328-1.262-0.564-2.017-0.708c-0.755-0.144-1.71-0.215-2.865-0.215h-3.61v9.469
			h3.076c1.474,0,2.671-0.114,3.592-0.342s1.671-0.591,2.248-1.091c0.577-0.509,0.985-1.045,1.225-1.607
			C159.883,64.904,160.003,64.272,160.003,63.573z"/>
		<path fill="#1D1719" stroke="#1D1719" stroke-width="1.8" d="M187.615,80.131h-15.718V56.287h15.718V59.1h-12.53v6.531h12.53
			v2.812h-12.53v8.875h12.53V80.131z"/>
		<path fill="#1D1719" stroke="#1D1719" stroke-width="1.8" d="M212.923,59.1h-8.188v21.031h-3.031V59.1h-8.188v-2.812h19.406V59.1z
			"/>
		<path fill="#1D1719" stroke="#1D1719" stroke-width="1.8" d="M235.793,80.131h-15.719V56.287h15.719V59.1h-12.531v6.531h12.531
			v2.812h-12.531v8.875h12.531V80.131z"/>
		<path fill="#1D1719" stroke="#1D1719" stroke-width="1.8" d="M266.125,80.131h-4.511l-12.989-21.329v21.329h-3.406V56.287h5.651
			l11.849,19.472V56.287h3.406V80.131z"/>
		<path fill="#1D1719" stroke="#1D1719" stroke-width="1.8" d="M318.118,80.131h-15.719V56.287h15.719V59.1h-12.531v6.531h12.531
			v2.812h-12.531v8.875h12.531V80.131z"/>
	</g>
	<rect x="79.91" y="17.12" fill="none" width="65.423" height="31"/>
	
		<text transform="matrix(1.1 0 0 1 79.9097 42.0479)" fill="#1D1719" stroke="#1D1719" stroke-width="1.8" font-family="'Verdana'" font-size="32.8" letter-spacing="2.727">R</text>
	
		<text transform="matrix(1.15 0 0 1 108.8931 42.0479)" fill="#1D1719" stroke="#1D1719" stroke-width="1.8" font-family="'Verdana'" font-size="32.8" letter-spacing="3.478">M</text>
	
		<line fill-rule="evenodd" clip-rule="evenodd" fill="none" stroke="#567EB9" stroke-width="2" x1="0" y1="49.697" x2="106.667" y2="49.697"/>
	
		<line fill-rule="evenodd" clip-rule="evenodd" fill="none" stroke="#567EB9" stroke-width="2" x1="53.167" y1="0" x2="53.167" y2="100.007"/>
	<g>
		<path d="M46.797,87.252c-5.24,0-10.416-1.509-14.565-2.981c-3.556-1.262-7.187-3.104-11.354-7.111
			c-3.188-3.064-5.598-7.183-7.35-11.764s-2.628-9.873-2.628-15.876c0-5.592,0.836-10.663,2.509-15.212s4.104-8.451,7.292-11.706
			c3.062-3.127,6.857-5.544,11.388-7.25c4.529-1.706,9.478-2.56,14.844-2.56c2.967,0,5.74-0.076,8.123,0.256
			s4.517,0.495,6.538,1.032c2.114,0.602,4.473,1.437,6.193,2.179c1.721,0.743,3.98,1.776,5.275,2.409l0.115,16.974
			c0,0-8.372-5.506-10.437-6.309c-1.72-1.032-4.47-1.76-6.537-2.294s-4.182-0.623-6.486-0.623c-2.558,0-4.989,0.402-7.294,1.207
			c-2.306,0.805-4.438,2.139-6.395,4c-1.863,1.8-3.372,4.183-4.524,7.149s-1.729,6.564-1.729,10.793
			c0,4.419,0.623,8.111,1.871,11.078c1.247,2.967,2.818,5.303,4.713,7.006c1.926,1.736,4.073,2.976,6.442,3.717
			c2.368,0.742,4.705,1.112,7.01,1.112c2.211,0,6.621-0.596,6.621-0.596s2.867-0.688,6.422-2.294
			c2.198-0.992,10.437-4.587,10.437-4.587l-0.115,16.285c-1.768,0.791-4.125,1.828-5.734,2.523c-1.61,0.695-3.852,1.216-5.62,1.721
			c-2.305,0.663-4.748,1.028-6.767,1.376C53.034,87.256,50.333,87.252,46.797,87.252z"/>
	</g>
</g>
</svg>
